<svg width="1890" height="1040" viewBox="0 0 1890 1040" fill="none" xmlns="http://www.w3.org/2000/svg">
<g clip-path="url(#clip0_1853_137)">
<path d="M419.409 1002.81C417.426 1002.81 415.819 1004.42 415.819 1006.41C415.819 1008.39 417.426 1010 419.409 1010C421.392 1010 423 1008.39 423 1006.41C423 1004.42 421.392 1002.81 419.409 1002.81Z" fill="#101020"/>
<path d="M367.432 1002.81C365.449 1002.81 363.841 1004.42 363.841 1006.41C363.841 1008.39 365.449 1010 367.432 1010C369.415 1010 371.022 1008.39 371.022 1006.41C371.022 1004.42 369.415 1002.81 367.432 1002.81Z" fill="#FF0B53"/>
<path d="M315.455 1002.81C313.472 1002.81 311.864 1004.42 311.864 1006.41C311.864 1008.39 313.472 1010 315.455 1010C317.438 1010 319.046 1008.39 319.046 1006.41C319.046 1004.42 317.438 1002.81 315.455 1002.81Z" fill="#FF0B53"/>
<path d="M263.477 1002.81C261.494 1002.81 259.887 1004.42 259.887 1006.41C259.887 1008.39 261.494 1010 263.477 1010C265.46 1010 267.068 1008.39 267.068 1006.41C267.068 1004.42 265.46 1002.81 263.477 1002.81Z" fill="#101020"/>
<path d="M211.5 1002.81C209.517 1002.81 207.909 1004.42 207.909 1006.41C207.909 1008.39 209.517 1010 211.5 1010C213.483 1010 215.09 1008.39 215.09 1006.41C215.09 1004.42 213.483 1002.81 211.5 1002.81Z" fill="#FF0B53"/>
<path d="M159.523 1002.81C157.54 1002.81 155.932 1004.42 155.932 1006.41C155.932 1008.39 157.54 1010 159.523 1010C161.506 1010 163.114 1008.39 163.114 1006.41C163.114 1004.42 161.506 1002.81 159.523 1002.81Z" fill="#FF0B53"/>
<path d="M103.955 1006.41C103.955 1004.43 105.573 1002.81 107.545 1002.81C109.517 1002.81 111.136 1004.43 111.136 1006.41C111.136 1008.38 109.517 1010 107.545 1010C105.544 1010 103.955 1008.38 103.955 1006.41Z" fill="#FF0B53"/>
<path d="M55.5679 1002.81C53.5847 1002.81 51.9771 1004.42 51.9771 1006.41C51.9771 1008.39 53.5847 1010 55.5679 1010C57.551 1010 59.1586 1008.39 59.1586 1006.41C59.1586 1004.42 57.551 1002.81 55.5679 1002.81Z" fill="#FF0B53"/>
<path d="M3.59116 1002.81C1.60805 1002.81 0.000426759 1004.42 0.000426932 1006.41C0.000427105 1008.39 1.60805 1010 3.59116 1010C5.57426 1010 7.18188 1008.39 7.18188 1006.41C7.18188 1004.42 5.57426 1002.81 3.59116 1002.81Z" fill="#FF0B53"/>
<path d="M419.409 967.861C417.426 967.861 415.819 969.47 415.819 971.454C415.819 973.438 417.426 975.046 419.409 975.046C421.392 975.046 423 973.438 423 971.454C423 969.47 421.392 967.861 419.409 967.861Z" fill="#FF0B53"/>
<path d="M367.432 967.861C365.449 967.861 363.841 969.47 363.841 971.454C363.841 973.438 365.449 975.046 367.432 975.046C369.415 975.046 371.022 973.438 371.022 971.454C371.022 969.47 369.415 967.861 367.432 967.861Z" fill="#FF0B53"/>
<path d="M315.455 967.861C313.472 967.861 311.864 969.47 311.864 971.454C311.864 973.438 313.472 975.046 315.455 975.046C317.438 975.046 319.046 973.438 319.046 971.454C319.046 969.47 317.438 967.861 315.455 967.861Z" fill="#FF0B53"/>
<path d="M263.477 967.861C261.494 967.861 259.887 969.47 259.887 971.454C259.887 973.438 261.494 975.046 263.477 975.046C265.46 975.046 267.068 973.438 267.068 971.454C267.068 969.47 265.46 967.861 263.477 967.861Z" fill="#FF0B53"/>
<path d="M211.5 967.861C209.517 967.861 207.909 969.47 207.909 971.454C207.909 973.438 209.517 975.046 211.5 975.046C213.483 975.046 215.09 973.438 215.09 971.454C215.09 969.47 213.483 967.861 211.5 967.861Z" fill="#FF0B53"/>
<path d="M159.523 967.861C157.54 967.861 155.932 969.47 155.932 971.454C155.932 973.438 157.54 975.046 159.523 975.046C161.506 975.046 163.114 973.438 163.114 971.454C163.114 969.47 161.506 967.861 159.523 967.861Z" fill="#101020"/>
<path d="M103.955 971.454C103.955 969.481 105.573 967.861 107.545 967.861C109.517 967.861 111.136 969.481 111.136 971.454C111.136 973.427 109.517 975.046 107.545 975.046C105.544 975.046 103.955 973.427 103.955 971.454Z" fill="#FF0B53"/>
<path d="M55.5679 967.861C53.5847 967.861 51.9771 969.47 51.9771 971.454C51.9771 973.438 53.5847 975.046 55.5679 975.046C57.551 975.046 59.1586 973.438 59.1586 971.454C59.1586 969.47 57.551 967.861 55.5679 967.861Z" fill="#FF0B53"/>
<path d="M3.59116 967.861C1.60805 967.861 0.000426759 969.47 0.000426932 971.454C0.000427105 973.438 1.60805 975.046 3.59116 975.046C5.57426 975.046 7.18188 973.438 7.18188 971.454C7.18188 969.47 5.57426 967.861 3.59116 967.861Z" fill="#101020"/>
<path d="M419.409 932.907C417.426 932.907 415.819 934.516 415.819 936.5C415.819 938.484 417.426 940.093 419.409 940.093C421.392 940.093 423 938.484 423 936.5C423 934.516 421.392 932.907 419.409 932.907Z" fill="#FF0B53"/>
<path d="M367.432 932.907C365.449 932.907 363.841 934.516 363.841 936.5C363.841 938.484 365.449 940.093 367.432 940.093C369.415 940.093 371.022 938.484 371.022 936.5C371.022 934.516 369.415 932.907 367.432 932.907Z" fill="#101020"/>
<path d="M315.455 932.907C313.472 932.907 311.864 934.516 311.864 936.5C311.864 938.484 313.472 940.093 315.455 940.093C317.438 940.093 319.046 938.484 319.046 936.5C319.046 934.516 317.438 932.907 315.455 932.907Z" fill="#FF0B53"/>
<path d="M263.477 932.907C261.494 932.907 259.887 934.516 259.887 936.5C259.887 938.484 261.494 940.093 263.477 940.093C265.46 940.093 267.068 938.484 267.068 936.5C267.068 934.516 265.46 932.907 263.477 932.907Z" fill="#FF0B53"/>
<path d="M211.5 932.907C209.517 932.907 207.909 934.516 207.909 936.5C207.909 938.484 209.517 940.093 211.5 940.093C213.483 940.093 215.09 938.484 215.09 936.5C215.09 934.516 213.483 932.907 211.5 932.907Z" fill="#FF0B53"/>
<path d="M159.523 932.907C157.54 932.907 155.932 934.516 155.932 936.5C155.932 938.484 157.54 940.093 159.523 940.093C161.506 940.093 163.114 938.484 163.114 936.5C163.114 934.516 161.506 932.907 159.523 932.907Z" fill="#FF0B53"/>
<path d="M103.955 936.5C103.955 934.527 105.573 932.907 107.545 932.907C109.517 932.907 111.136 934.527 111.136 936.5C111.136 938.473 109.517 940.093 107.545 940.093C105.544 940.093 103.955 938.473 103.955 936.5Z" fill="#101020"/>
<path d="M55.5679 932.907C53.5847 932.907 51.9771 934.516 51.9771 936.5C51.9771 938.484 53.5847 940.093 55.5679 940.093C57.551 940.093 59.1586 938.484 59.1586 936.5C59.1586 934.516 57.551 932.907 55.5679 932.907Z" fill="#FF0B53"/>
<path d="M3.59116 932.907C1.60805 932.907 0.000426759 934.516 0.000426932 936.5C0.000427105 938.484 1.60805 940.093 3.59116 940.093C5.57426 940.093 7.18188 938.484 7.18188 936.5C7.18188 934.516 5.57426 932.907 3.59116 932.907Z" fill="#FF0B53"/>
<path d="M419.409 897.954C417.426 897.954 415.819 899.562 415.819 901.546C415.819 903.53 417.426 905.139 419.409 905.139C421.392 905.139 423 903.53 423 901.546C423 899.562 421.392 897.954 419.409 897.954Z" fill="#FF0B53"/>
<path d="M367.432 897.954C365.449 897.954 363.841 899.562 363.841 901.546C363.841 903.53 365.449 905.139 367.432 905.139C369.415 905.139 371.022 903.53 371.022 901.546C371.022 899.562 369.415 897.954 367.432 897.954Z" fill="#FF0B53"/>
<path d="M315.455 897.954C313.472 897.954 311.864 899.562 311.864 901.546C311.864 903.53 313.472 905.139 315.455 905.139C317.438 905.139 319.046 903.53 319.046 901.546C319.046 899.562 317.438 897.954 315.455 897.954Z" fill="#101020"/>
<path d="M263.477 897.954C261.494 897.954 259.887 899.562 259.887 901.546C259.887 903.53 261.494 905.139 263.477 905.139C265.46 905.139 267.068 903.53 267.068 901.546C267.068 899.562 265.46 897.954 263.477 897.954Z" fill="#FF0B53"/>
<path d="M211.5 897.954C209.517 897.954 207.909 899.562 207.909 901.546C207.909 903.53 209.517 905.139 211.5 905.139C213.483 905.139 215.09 903.53 215.09 901.546C215.09 899.562 213.483 897.954 211.5 897.954Z" fill="#101020"/>
<path d="M159.523 897.954C157.54 897.954 155.932 899.562 155.932 901.546C155.932 903.53 157.54 905.139 159.523 905.139C161.506 905.139 163.114 903.53 163.114 901.546C163.114 899.562 161.506 897.954 159.523 897.954Z" fill="#FF0B53"/>
<path d="M103.955 901.546C103.955 899.573 105.573 897.954 107.545 897.954C109.517 897.954 111.136 899.573 111.136 901.546C111.136 903.519 109.517 905.139 107.545 905.139C105.544 905.139 103.955 903.519 103.955 901.546Z" fill="#FF0B53"/>
<path d="M55.5679 897.954C53.5847 897.954 51.9771 899.562 51.9771 901.546C51.9771 903.53 53.5847 905.139 55.5679 905.139C57.551 905.139 59.1586 903.53 59.1586 901.546C59.1586 899.562 57.551 897.954 55.5679 897.954Z" fill="#FF0B53"/>
<path d="M3.59116 897.954C1.60805 897.954 0.000426759 899.562 0.000426932 901.546C0.000427105 903.53 1.60805 905.139 3.59116 905.139C5.57426 905.139 7.18188 903.53 7.18188 901.546C7.18188 899.562 5.57426 897.954 3.59116 897.954Z" fill="#FF0B53"/>
<path d="M419.409 863C417.426 863 415.819 864.609 415.819 866.593C415.819 868.577 417.426 870.185 419.409 870.185C421.392 870.185 423 868.577 423 866.593C423 864.609 421.392 863 419.409 863Z" fill="#FF0B53"/>
<path d="M367.432 863C365.449 863 363.841 864.609 363.841 866.593C363.841 868.577 365.449 870.185 367.432 870.185C369.415 870.185 371.022 868.577 371.022 866.593C371.022 864.609 369.415 863 367.432 863Z" fill="#FF0B53"/>
<path d="M315.455 863C313.472 863 311.864 864.609 311.864 866.593C311.864 868.577 313.472 870.185 315.455 870.185C317.438 870.185 319.046 868.577 319.046 866.593C319.046 864.609 317.438 863 315.455 863Z" fill="#FF0B53"/>
<path d="M263.477 863C261.494 863 259.887 864.609 259.887 866.593C259.887 868.577 261.494 870.185 263.477 870.185C265.46 870.185 267.068 868.577 267.068 866.593C267.068 864.609 265.46 863 263.477 863Z" fill="#FF0B53"/>
<path d="M211.5 863C209.517 863 207.909 864.609 207.909 866.593C207.909 868.577 209.517 870.185 211.5 870.185C213.483 870.185 215.09 868.577 215.09 866.593C215.09 864.609 213.483 863 211.5 863Z" fill="#FF0B53"/>
<path d="M159.523 863C157.54 863 155.932 864.609 155.932 866.593C155.932 868.577 157.54 870.185 159.523 870.185C161.506 870.185 163.114 868.577 163.114 866.593C163.114 864.609 161.506 863 159.523 863Z" fill="#FF0B53"/>
<path d="M103.955 866.593C103.955 864.62 105.573 863 107.545 863C109.517 863 111.136 864.62 111.136 866.593C111.136 868.566 109.517 870.185 107.545 870.185C105.544 870.185 103.955 868.566 103.955 866.593Z" fill="#FF0B53"/>
<path d="M55.5679 863C53.5847 863 51.9771 864.609 51.9771 866.593C51.9771 868.577 53.5847 870.185 55.5679 870.185C57.551 870.185 59.1586 868.577 59.1586 866.593C59.1586 864.609 57.551 863 55.5679 863Z" fill="#101020"/>
<path d="M3.59116 863C1.60805 863 0.000426759 864.609 0.000426932 866.593C0.000427105 868.577 1.60805 870.185 3.59116 870.185C5.57426 870.185 7.18188 868.577 7.18188 866.593C7.18188 864.609 5.57426 863 3.59116 863Z" fill="#101020"/>
</g>
<g clip-path="url(#clip1_1853_137)">
<path d="M1825.17 664.012C1848.44 664.012 1867.3 645.122 1867.3 621.82C1867.3 598.518 1848.44 579.628 1825.17 579.628C1801.9 579.628 1783.04 598.518 1783.04 621.82C1783.04 645.122 1801.9 664.012 1825.17 664.012Z" fill="#17191D"/>
<path d="M1906.34 541.94C1940.28 507.948 1940.28 452.837 1906.34 418.846C1872.4 384.854 1817.37 384.854 1783.43 418.846C1749.49 452.837 1749.49 507.948 1783.43 541.94C1817.37 575.932 1872.4 575.932 1906.34 541.94Z" fill="#17191D"/>
<path d="M1869.96 542.31C1917.96 542.31 1956.87 503.34 1956.87 455.268C1956.87 407.196 1917.96 368.226 1869.96 368.226C1821.95 368.226 1783.04 407.196 1783.04 455.268C1783.04 503.34 1821.95 542.31 1869.96 542.31Z" fill="#FF0B53"/>
<path d="M1839.77 1040C1887.77 1040 1926.68 1001.03 1926.68 952.958C1926.68 904.886 1887.77 865.917 1839.77 865.917C1791.77 865.917 1752.86 904.886 1752.86 952.958C1752.86 1001.03 1791.77 1040 1839.77 1040Z" fill="#FF0B53"/>
<path d="M1684.31 174.083C1732.31 174.083 1771.22 135.114 1771.22 87.0417C1771.22 38.9699 1732.31 0 1684.31 0C1636.31 0 1597.39 38.9699 1597.39 87.0417C1597.39 135.114 1636.31 174.083 1684.31 174.083Z" fill="#FF0B53"/>
<path d="M2038.36 253.322C2086.29 205.324 2086.29 127.504 2038.36 79.5058C1990.43 31.5079 1912.73 31.5079 1864.8 79.5058C1816.87 127.504 1816.87 205.324 1864.8 253.322C1912.73 301.319 1990.43 301.319 2038.36 253.322Z" stroke="#FF0B53" stroke-width="20" stroke-miterlimit="10"/>
<path d="M1741.32 767.568C1760.69 722.42 1739.84 670.097 1694.76 650.702C1649.68 631.307 1597.43 652.184 1578.06 697.333C1558.7 742.481 1579.54 794.804 1624.63 814.199C1669.71 833.594 1721.96 812.717 1741.32 767.568Z" stroke="#FF0B53" stroke-width="20" stroke-miterlimit="10"/>
<path d="M1972.14 643.457V823.902L1825.17 733.67L1972.14 643.457Z" fill="#17191D"/>
<path d="M1932.35 643.457V823.902L1785.38 733.67L1932.35 643.457Z" stroke="#17191D" stroke-miterlimit="10"/>
<path d="M1637.03 117.007C1637.03 127.143 1624.08 127.143 1624.08 137.279C1624.08 147.415 1637.03 147.415 1637.03 157.551C1637.03 167.686 1624.08 167.686 1624.08 177.822C1624.08 187.958 1637.03 187.958 1637.03 198.094C1637.03 208.23 1624.08 208.23 1624.08 218.366C1624.08 228.502 1637.03 228.502 1637.03 238.638C1637.03 248.774 1624.08 248.774 1624.08 258.928C1624.08 269.064 1637.03 269.064 1637.03 279.218" stroke="#17191D" stroke-miterlimit="10"/>
<path d="M1559.39 251.858C1509.54 301.775 1509.54 382.721 1559.39 432.639C1609.23 482.557 1690.06 482.557 1739.9 432.639L1559.39 251.858Z" fill="#FF0B53"/>
<path d="M1817.64 410.35C1889.13 408.244 1945.38 348.494 1943.28 276.894C1941.18 205.295 1881.52 148.959 1810.02 151.065C1738.53 153.171 1682.27 212.921 1684.38 284.52C1686.48 356.12 1746.14 412.455 1817.64 410.35Z" stroke="#17191D" stroke-width="2" stroke-linecap="round" stroke-linejoin="round"/>
<path d="M1817.44 389.831C1877.63 387.822 1924.79 337.329 1922.79 277.05C1920.78 216.771 1870.36 169.534 1810.17 171.542C1749.98 173.551 1702.82 224.045 1704.82 284.323C1706.83 344.602 1757.25 391.839 1817.44 389.831Z" stroke="#17191D" stroke-width="2" stroke-linecap="round" stroke-linejoin="round"/>
<path d="M1828.01 368.285C1876.31 360.435 1909.11 314.86 1901.27 266.49C1893.43 218.121 1847.93 185.273 1799.63 193.124C1751.33 200.974 1718.53 246.548 1726.37 294.918C1734.21 343.287 1779.71 376.135 1828.01 368.285Z" stroke="#17191D" stroke-width="2" stroke-linecap="round" stroke-linejoin="round"/>
<path d="M1828.23 347.387C1865 339.409 1888.36 303.082 1880.39 266.249C1872.43 229.417 1836.15 206.026 1799.38 214.004C1762.6 221.983 1739.24 258.31 1747.21 295.142C1755.17 331.975 1791.45 355.366 1828.23 347.387Z" stroke="#17191D" stroke-width="2" stroke-linecap="round" stroke-linejoin="round"/>
<path d="M1832.07 324.828C1856.4 314.734 1867.96 286.798 1857.88 262.43C1847.8 238.062 1819.9 226.491 1795.57 236.584C1771.24 246.678 1759.68 274.615 1769.76 298.983C1779.84 323.35 1807.74 334.922 1832.07 324.828Z" stroke="#17191D" stroke-width="2" stroke-linecap="round" stroke-linejoin="round"/>
<path d="M1596.92 441.482C1596.92 440.277 1595.94 439.302 1594.74 439.302C1593.54 439.302 1592.56 440.277 1592.56 441.482C1592.56 442.687 1593.54 443.661 1594.74 443.661C1595.94 443.661 1596.92 442.687 1596.92 441.482Z" fill="#EAEAEA"/>
<path d="M1632.73 441.482C1632.73 440.277 1631.76 439.302 1630.55 439.302C1629.35 439.302 1628.38 440.277 1628.38 441.482C1628.38 442.687 1629.35 443.661 1630.55 443.661C1631.76 443.661 1632.73 442.687 1632.73 441.482Z" fill="#EAEAEA"/>
<path d="M1668.56 441.482C1668.56 440.277 1667.59 439.302 1666.38 439.302C1665.18 439.302 1664.21 440.277 1664.21 441.482C1664.21 442.687 1665.18 443.661 1666.38 443.661C1667.59 443.661 1668.56 442.687 1668.56 441.482Z" fill="#EAEAEA"/>
<path d="M1704.37 441.482C1704.37 440.277 1703.4 439.302 1702.2 439.302C1700.99 439.302 1700.02 440.277 1700.02 441.482C1700.02 442.687 1700.99 443.661 1702.2 443.661C1703.4 443.661 1704.37 442.687 1704.37 441.482Z" fill="#EAEAEA"/>
<path d="M1740.2 441.482C1740.2 440.277 1739.23 439.302 1738.03 439.302C1736.82 439.302 1735.85 440.277 1735.85 441.482C1735.85 442.687 1736.82 443.661 1738.03 443.661C1739.23 443.661 1740.2 442.687 1740.2 441.482Z" fill="#17191D"/>
<path d="M1596.92 474.583C1596.92 473.378 1595.94 472.403 1594.74 472.403C1593.54 472.403 1592.56 473.378 1592.56 474.583C1592.56 475.788 1593.54 476.762 1594.74 476.762C1595.94 476.762 1596.92 475.788 1596.92 474.583Z" fill="#17191D"/>
<path d="M1632.73 474.583C1632.73 473.378 1631.76 472.403 1630.55 472.403C1629.35 472.403 1628.38 473.378 1628.38 474.583C1628.38 475.788 1629.35 476.762 1630.55 476.762C1631.76 476.762 1632.73 475.788 1632.73 474.583Z" fill="#17191D"/>
<path d="M1668.56 474.583C1668.56 473.378 1667.59 472.403 1666.38 472.403C1665.18 472.403 1664.21 473.378 1664.21 474.583C1664.21 475.788 1665.18 476.762 1666.38 476.762C1667.59 476.762 1668.56 475.788 1668.56 474.583Z" fill="#17191D"/>
<path d="M1704.37 474.583C1704.37 473.378 1703.4 472.403 1702.2 472.403C1700.99 472.403 1700.02 473.378 1700.02 474.583C1700.02 475.788 1700.99 476.762 1702.2 476.762C1703.4 476.762 1704.37 475.788 1704.37 474.583Z" fill="#17191D"/>
<path d="M1740.2 474.583C1740.2 473.378 1739.23 472.403 1738.03 472.403C1736.82 472.403 1735.85 473.378 1735.85 474.583C1735.85 475.788 1736.82 476.762 1738.03 476.762C1739.23 476.762 1740.2 475.788 1740.2 474.583Z" fill="#17191D"/>
<path d="M1596.92 507.684C1596.92 506.479 1595.94 505.505 1594.74 505.505C1593.54 505.505 1592.56 506.479 1592.56 507.684C1592.56 508.889 1593.54 509.864 1594.74 509.864C1595.94 509.864 1596.92 508.889 1596.92 507.684Z" fill="#17191D"/>
<path d="M1632.73 507.684C1632.73 506.479 1631.76 505.505 1630.55 505.505C1629.35 505.505 1628.38 506.479 1628.38 507.684C1628.38 508.889 1629.35 509.864 1630.55 509.864C1631.76 509.864 1632.73 508.889 1632.73 507.684Z" fill="#17191D"/>
<path d="M1668.56 507.684C1668.56 506.479 1667.59 505.505 1666.38 505.505C1665.18 505.505 1664.21 506.479 1664.21 507.684C1664.21 508.889 1665.18 509.864 1666.38 509.864C1667.59 509.864 1668.56 508.889 1668.56 507.684Z" fill="#17191D"/>
<path d="M1704.37 507.684C1704.37 506.479 1703.4 505.505 1702.2 505.505C1700.99 505.505 1700.02 506.479 1700.02 507.684C1700.02 508.889 1700.99 509.864 1702.2 509.864C1703.4 509.864 1704.37 508.889 1704.37 507.684Z" fill="#17191D"/>
<path d="M1740.2 507.684C1740.2 506.479 1739.23 505.505 1738.03 505.505C1736.82 505.505 1735.85 506.479 1735.85 507.684C1735.85 508.889 1736.82 509.864 1738.03 509.864C1739.23 509.864 1740.2 508.889 1740.2 507.684Z" fill="#17191D"/>
<path d="M1596.92 540.768C1596.92 539.563 1595.94 538.588 1594.74 538.588C1593.54 538.588 1592.56 539.563 1592.56 540.768C1592.56 541.973 1593.54 542.948 1594.74 542.948C1595.94 542.948 1596.92 541.973 1596.92 540.768Z" fill="#17191D"/>
<path d="M1632.73 540.768C1632.73 539.563 1631.76 538.588 1630.55 538.588C1629.35 538.588 1628.38 539.563 1628.38 540.768C1628.38 541.973 1629.35 542.948 1630.55 542.948C1631.76 542.948 1632.73 541.973 1632.73 540.768Z" fill="#17191D"/>
<path d="M1668.56 540.768C1668.56 539.563 1667.59 538.588 1666.38 538.588C1665.18 538.588 1664.21 539.563 1664.21 540.768C1664.21 541.973 1665.18 542.948 1666.38 542.948C1667.59 542.948 1668.56 541.973 1668.56 540.768Z" fill="#17191D"/>
<path d="M1704.37 540.768C1704.37 539.563 1703.4 538.588 1702.2 538.588C1700.99 538.588 1700.02 539.563 1700.02 540.768C1700.02 541.973 1700.99 542.948 1702.2 542.948C1703.4 542.948 1704.37 541.973 1704.37 540.768Z" fill="#17191D"/>
<path d="M1740.2 540.768C1740.2 539.563 1739.23 538.588 1738.03 538.588C1736.82 538.588 1735.85 539.563 1735.85 540.768C1735.85 541.973 1736.82 542.948 1738.03 542.948C1739.23 542.948 1740.2 541.973 1740.2 540.768Z" fill="#17191D"/>
<path d="M1596.92 573.869C1596.92 572.664 1595.94 571.69 1594.74 571.69C1593.54 571.69 1592.56 572.664 1592.56 573.869C1592.56 575.074 1593.54 576.049 1594.74 576.049C1595.94 576.049 1596.92 575.074 1596.92 573.869Z" fill="#17191D"/>
<path d="M1632.73 573.869C1632.73 572.664 1631.76 571.69 1630.55 571.69C1629.35 571.69 1628.38 572.664 1628.38 573.869C1628.38 575.074 1629.35 576.049 1630.55 576.049C1631.76 576.049 1632.73 575.074 1632.73 573.869Z" fill="#17191D"/>
<path d="M1668.56 573.869C1668.56 572.664 1667.59 571.69 1666.38 571.69C1665.18 571.69 1664.21 572.664 1664.21 573.869C1664.21 575.074 1665.18 576.049 1666.38 576.049C1667.59 576.049 1668.56 575.074 1668.56 573.869Z" fill="#17191D"/>
<path d="M1704.37 573.869C1704.37 572.664 1703.4 571.69 1702.2 571.69C1700.99 571.69 1700.02 572.664 1700.02 573.869C1700.02 575.074 1700.99 576.049 1702.2 576.049C1703.4 576.049 1704.37 575.074 1704.37 573.869Z" fill="#17191D"/>
<path d="M1740.2 573.869C1740.2 572.664 1739.23 571.69 1738.03 571.69C1736.82 571.69 1735.85 572.664 1735.85 573.869C1735.85 575.074 1736.82 576.049 1738.03 576.049C1739.23 576.049 1740.2 575.074 1740.2 573.869Z" fill="#17191D"/>
<path d="M1839.77 795.018C1839.77 793.813 1838.8 792.838 1837.59 792.838C1836.39 792.838 1835.42 793.813 1835.42 795.018C1835.42 796.223 1836.39 797.197 1837.59 797.197C1838.8 797.197 1839.77 796.223 1839.77 795.018Z" fill="#17191D"/>
<path d="M1875.6 795.018C1875.6 793.813 1874.63 792.838 1873.42 792.838C1872.22 792.838 1871.25 793.813 1871.25 795.018C1871.25 796.223 1872.22 797.197 1873.42 797.197C1874.63 797.197 1875.6 796.223 1875.6 795.018Z" fill="#17191D"/>
<path d="M1839.77 828.101C1839.77 826.896 1838.8 825.922 1837.59 825.922C1836.39 825.922 1835.42 826.896 1835.42 828.101C1835.42 829.306 1836.39 830.281 1837.59 830.281C1838.8 830.281 1839.77 829.306 1839.77 828.101Z" fill="#17191D"/>
<path d="M1875.6 828.101C1875.6 826.896 1874.63 825.922 1873.42 825.922C1872.22 825.922 1871.25 826.896 1871.25 828.101C1871.25 829.306 1872.22 830.281 1873.42 830.281C1874.63 830.281 1875.6 829.306 1875.6 828.101Z" fill="#17191D"/>
<path d="M1839.77 861.203C1839.77 859.998 1838.8 859.023 1837.59 859.023C1836.39 859.023 1835.42 859.998 1835.42 861.203C1835.42 862.408 1836.39 863.382 1837.59 863.382C1838.8 863.382 1839.77 862.408 1839.77 861.203Z" fill="#17191D"/>
<path d="M1875.6 861.203C1875.6 859.998 1874.63 859.023 1873.42 859.023C1872.22 859.023 1871.25 859.998 1871.25 861.203C1871.25 862.408 1872.22 863.382 1873.42 863.382C1874.63 863.382 1875.6 862.408 1875.6 861.203Z" fill="#17191D"/>
<path d="M1839.77 894.287C1839.77 893.082 1838.8 892.107 1837.59 892.107C1836.39 892.107 1835.42 893.082 1835.42 894.287C1835.42 895.492 1836.39 896.466 1837.59 896.466C1838.8 896.484 1839.77 895.492 1839.77 894.287Z" fill="#EAEAEA"/>
<path d="M1875.6 894.287C1875.6 893.082 1874.63 892.107 1873.42 892.107C1872.22 892.107 1871.25 893.082 1871.25 894.287C1871.25 895.491 1872.22 896.466 1873.42 896.466C1874.63 896.466 1875.6 895.491 1875.6 894.287Z" fill="#EAEAEA"/>
<path d="M1839.77 927.388C1839.77 926.183 1838.8 925.208 1837.59 925.208C1836.39 925.208 1835.42 926.183 1835.42 927.388C1835.42 928.593 1836.39 929.567 1837.59 929.567C1838.8 929.567 1839.77 928.593 1839.77 927.388Z" fill="#EAEAEA"/>
<path d="M1875.6 927.388C1875.6 926.183 1874.63 925.208 1873.42 925.208C1872.22 925.208 1871.25 926.183 1871.25 927.388C1871.25 928.593 1872.22 929.567 1873.42 929.567C1874.63 929.567 1875.6 928.593 1875.6 927.388Z" fill="#EAEAEA"/>
<path d="M1609.36 885.621C1619.48 885.621 1619.48 898.593 1629.6 898.593C1639.72 898.593 1639.72 885.621 1649.84 885.621C1659.96 885.621 1659.96 898.593 1670.08 898.593C1680.2 898.593 1680.2 885.621 1690.32 885.621C1700.45 885.621 1700.45 898.593 1710.57 898.593C1720.69 898.593 1720.69 885.621 1730.81 885.621C1740.93 885.621 1740.93 898.593 1751.07 898.593C1761.19 898.593 1761.19 885.621 1771.33 885.621" stroke="#17191D" stroke-miterlimit="10"/>
<path d="M1441 466.5C1441 432.534 1413.47 405 1379.5 405C1345.53 405 1318 432.534 1318 466.5C1318 500.466 1345.53 528 1379.5 528C1413.47 528 1441 500.465 1441 466.5Z" fill="#FF0B53"/>
<path d="M1521.2 580L1492 609.202L1462.8 580L1441 601.795L1470.2 631.003L1441 660.205L1462.8 682L1492 652.798L1521.2 682L1543 660.205L1513.8 631.003L1543 601.795L1521.2 580Z" fill="#FF0B53"/>
</g>
<defs>
<clipPath id="clip0_1853_137">
<rect width="423" height="147" fill="white" transform="translate(423 1010) rotate(180)"/>
</clipPath>
<clipPath id="clip1_1853_137">
<rect width="814" height="1040" fill="white" transform="translate(1278)"/>
</clipPath>
</defs>
</svg>
