<svg width="34" height="34" viewBox="0 0 34 34" fill="none" xmlns="http://www.w3.org/2000/svg">
<path d="M19.8333 26.9167H26.9167V7.08333H7.08333V26.9167H17V19.8333H14.1667V17H17V14.6568C17 12.7627 17.1983 12.0757 17.5667 11.3829C17.9295 10.6975 18.4903 10.1372 19.176 9.775C19.7172 9.48458 20.3901 9.31033 21.5659 9.23525C22.032 9.2055 22.6355 9.24233 23.3764 9.34858V12.0402H22.6667C21.3676 12.0402 20.8307 12.1012 20.5105 12.2726C20.3195 12.3708 20.1639 12.5264 20.0657 12.7174C19.8957 13.0376 19.8333 13.3549 19.8333 14.6554V17H23.375L22.6667 19.8333H19.8333V26.9167ZM5.66667 4.25H28.3333C28.7091 4.25 29.0694 4.39926 29.3351 4.66493C29.6007 4.93061 29.75 5.29094 29.75 5.66667V28.3333C29.75 28.7091 29.6007 29.0694 29.3351 29.3351C29.0694 29.6007 28.7091 29.75 28.3333 29.75H5.66667C5.29094 29.75 4.93061 29.6007 4.66493 29.3351C4.39926 29.0694 4.25 28.7091 4.25 28.3333V5.66667C4.25 5.29094 4.39926 4.93061 4.66493 4.66493C4.93061 4.39926 5.29094 4.25 5.66667 4.25Z" fill="#FF0B53"/>
</svg>
