<svg width="34" height="34" viewBox="0 0 34 34" fill="none" xmlns="http://www.w3.org/2000/svg">
<path d="M5.66667 4.25H28.3333C28.7091 4.25 29.0694 4.39926 29.3351 4.66493C29.6007 4.93061 29.75 5.29094 29.75 5.66667V28.3333C29.75 28.7091 29.6007 29.0694 29.3351 29.3351C29.0694 29.6007 28.7091 29.75 28.3333 29.75H5.66667C5.29094 29.75 4.93061 29.6007 4.66493 29.3351C4.39926 29.0694 4.25 28.7091 4.25 28.3333V5.66667C4.25 5.29094 4.39926 4.93061 4.66493 4.66493C4.93061 4.39926 5.29094 4.25 5.66667 4.25ZM7.08333 7.08333V26.9167H26.9167V7.08333H7.08333ZM10.625 12.75C10.0614 12.75 9.52091 12.5261 9.1224 12.1276C8.72388 11.7291 8.5 11.1886 8.5 10.625C8.5 10.0614 8.72388 9.52091 9.1224 9.1224C9.52091 8.72388 10.0614 8.5 10.625 8.5C11.1886 8.5 11.7291 8.72388 12.1276 9.1224C12.5261 9.52091 12.75 10.0614 12.75 10.625C12.75 11.1886 12.5261 11.7291 12.1276 12.1276C11.7291 12.5261 11.1886 12.75 10.625 12.75ZM9.20833 14.1667H12.0417V24.7917H9.20833V14.1667ZM17 14.7758C17.8273 13.9754 18.7935 13.4583 19.8333 13.4583C22.7673 13.4583 24.7917 15.8369 24.7917 18.7708V24.7917H21.9583V18.7708C21.9583 18.1133 21.6971 17.4827 21.2322 17.0178C20.7673 16.5529 20.1367 16.2917 19.4792 16.2917C18.8217 16.2917 18.1911 16.5529 17.7261 17.0178C17.2612 17.4827 17 18.1133 17 18.7708V24.7917H14.1667V14.1667H17V14.7758Z" fill="#FF0B53"/>
</svg>
