<svg width="34" height="34" viewBox="0 0 34 34" fill="none" xmlns="http://www.w3.org/2000/svg">
<path d="M17 12.75C15.8728 12.75 14.7918 13.1978 13.9948 13.9948C13.1977 14.7919 12.75 15.8729 12.75 17C12.75 18.1272 13.1977 19.2082 13.9948 20.0052C14.7918 20.8023 15.8728 21.25 17 21.25C18.1271 21.25 19.2082 20.8023 20.0052 20.0052C20.8022 19.2082 21.25 18.1272 21.25 17C21.25 15.8729 20.8022 14.7919 20.0052 13.9948C19.2082 13.1978 18.1271 12.75 17 12.75ZM17 9.91671C18.8786 9.91671 20.6803 10.663 22.0087 11.9914C23.337 13.3198 24.0833 15.1214 24.0833 17C24.0833 18.8787 23.337 20.6803 22.0087 22.0087C20.6803 23.3371 18.8786 24.0834 17 24.0834C15.1214 24.0834 13.3197 23.3371 11.9913 22.0087C10.6629 20.6803 9.91665 18.8787 9.91665 17C9.91665 15.1214 10.6629 13.3198 11.9913 11.9914C13.3197 10.663 15.1214 9.91671 17 9.91671V9.91671ZM26.2083 9.56254C26.2083 10.0322 26.0217 10.4826 25.6896 10.8147C25.3576 11.1468 24.9071 11.3334 24.4375 11.3334C23.9678 11.3334 23.5174 11.1468 23.1853 10.8147C22.8532 10.4826 22.6666 10.0322 22.6666 9.56254C22.6666 9.09289 22.8532 8.64247 23.1853 8.31037C23.5174 7.97828 23.9678 7.79171 24.4375 7.79171C24.9071 7.79171 25.3576 7.97828 25.6896 8.31037C26.0217 8.64247 26.2083 9.09289 26.2083 9.56254V9.56254ZM17 5.66671C13.4951 5.66671 12.9228 5.67662 11.2922 5.74887C10.1816 5.80129 9.4364 5.95004 8.74506 6.21921C8.13023 6.45721 7.68681 6.74196 7.21506 7.21512C6.77166 7.64352 6.43073 8.16653 6.21773 8.74512C5.94856 9.43929 5.79981 10.183 5.74881 11.2923C5.67515 12.8563 5.66665 13.4031 5.66665 17C5.66665 20.5049 5.67656 21.0772 5.74881 22.7078C5.80123 23.817 5.94998 24.5636 6.21773 25.2535C6.45856 25.8698 6.7419 26.3132 7.21223 26.7835C7.68965 27.2595 8.13306 27.5443 8.74223 27.7795C9.44206 28.05 10.1872 28.2002 11.2922 28.2512C12.8562 28.3249 13.4031 28.3334 17 28.3334C20.5048 28.3334 21.0771 28.3235 22.7077 28.2512C23.8156 28.1988 24.5621 28.05 25.2535 27.7823C25.8669 27.5429 26.3131 27.2581 26.7835 26.7878C27.2609 26.3104 27.5456 25.867 27.7808 25.2578C28.05 24.5594 28.2001 23.8128 28.2511 22.7078C28.3248 21.1438 28.3333 20.597 28.3333 17C28.3333 13.4952 28.3234 12.9229 28.2511 11.2923C28.1987 10.1845 28.05 9.43646 27.7808 8.74512C27.5673 8.16713 27.227 7.64432 26.7849 7.21512C26.3567 6.77149 25.8336 6.43053 25.2549 6.21779C24.5607 5.94862 23.8156 5.79987 22.7077 5.74887C21.1437 5.67521 20.5969 5.66671 17 5.66671ZM17 2.83337C20.8491 2.83337 21.3293 2.84754 22.8395 2.91837C24.3482 2.98921 25.3753 3.22579 26.2791 3.57712C27.2141 3.93696 28.0018 4.42429 28.7895 5.21054C29.5098 5.91873 30.0672 6.77537 30.4229 7.72087C30.7728 8.62329 31.0108 9.65179 31.0816 11.1605C31.1482 12.6707 31.1666 13.151 31.1666 17C31.1666 20.8491 31.1525 21.3294 31.0816 22.8395C31.0108 24.3483 30.7728 25.3754 30.4229 26.2792C30.0683 27.2252 29.5107 28.0821 28.7895 28.7895C28.0811 29.5097 27.2245 30.067 26.2791 30.423C25.3767 30.7729 24.3482 31.0109 22.8395 31.0817C21.3293 31.1483 20.8491 31.1667 17 31.1667C13.1509 31.1667 12.6706 31.1525 11.1605 31.0817C9.65173 31.0109 8.62465 30.7729 7.72081 30.423C6.77494 30.068 5.91814 29.5105 5.21048 28.7895C4.48997 28.0815 3.93255 27.2248 3.57706 26.2792C3.22573 25.3768 2.98915 24.3483 2.91831 22.8395C2.85173 21.3294 2.83331 20.8491 2.83331 17C2.83331 13.151 2.84748 12.6707 2.91831 11.1605C2.98915 9.65037 3.22573 8.62471 3.57706 7.72087C3.93156 6.77479 4.48912 5.91791 5.21048 5.21054C5.91835 4.48978 6.77509 3.93232 7.72081 3.57712C8.62465 3.22579 9.65031 2.98921 11.1605 2.91837C12.6706 2.85179 13.1509 2.83337 17 2.83337Z" fill="#FF0B53"/>
</svg>
