<svg width="1920" height="1079" viewBox="0 0 1920 1079" fill="none" xmlns="http://www.w3.org/2000/svg">
<g clip-path="url(#clip0_1_58)">
<path d="M330.441 139.198C520.71 115.033 602.493 255.028 555.351 350.649C508.209 446.269 298.824 466.479 328.092 621.351C357.373 776.236 102.817 846.261 102.817 846.261" stroke="white" stroke-miterlimit="10"/>
<path d="M40.8794 179.617C40.8794 179.617 185.923 232.146 330.238 213.286C474.553 194.427 491.428 279.193 474.553 312.943C439.534 382.981 252.33 396.441 240.207 509.571C231.094 594.608 303.508 708.899 139.2 769.5" stroke="white" stroke-miterlimit="10"/>
<path d="M105.531 236.182C105.531 236.182 253.788 217.269 227.314 300.834C196.98 396.616 125.727 395.104 193.065 516.321C217.014 559.44 224.047 733.158 92.058 698.139" stroke="white" stroke-miterlimit="10"/>
<path d="M356.698 333.153C393.515 333.153 423.361 316.87 423.361 296.784C423.361 276.698 393.515 260.415 356.698 260.415C319.881 260.415 290.035 276.698 290.035 296.784C290.035 316.87 319.881 333.153 356.698 333.153Z" stroke="white" stroke-miterlimit="10"/>
<path d="M1770.08 414.409C1770.08 414.409 1502.59 351.553 1421.78 615.532C1363.8 804.951 1358.86 908.239 1238.57 960.309C1118.3 1012.38 1048.26 1023.53 1041.08 1079.91" stroke="white" stroke-miterlimit="10"/>
<path d="M1357.06 1079.91C1357.06 1079.91 1286.46 904.635 1472.78 813.065C1598.56 751.248 1539.6 541.377 1621.11 474.566C1685.76 421.591 1770.08 535.977 1770.08 535.977" stroke="white" stroke-miterlimit="10"/>
<path d="M1412.32 1127.26C1412.32 1127.26 1414.46 991.683 1558.12 902.799C1701.77 813.915 1645.54 660.379 1728.16 637.038C1810.77 613.696 1893.38 714.258 1893.38 714.258" stroke="white" stroke-miterlimit="10"/>
<path d="M1513.37 1078.83C1513.37 1078.83 1502.59 967.491 1612.13 953.127C1721.67 938.763 1815.05 1060.47 1815.05 1060.47" stroke="white" stroke-miterlimit="10"/>
<path d="M313.742 810.122L271.244 852.606L228.759 810.122L197.048 841.833L239.532 884.318L197.048 926.802L228.759 958.527L271.244 916.029L313.742 958.527L345.453 926.816L302.955 884.318L345.453 841.833L313.742 810.122Z" stroke="#FF0B53" stroke-width="4" stroke-miterlimit="10"/>
<path d="M1846.32 410.71L1770.08 486.931L1693.86 410.71L1636.97 467.599L1713.19 543.834L1636.97 620.055L1693.86 676.944L1770.08 600.723L1846.32 676.944L1903.2 620.055L1826.98 543.834L1903.2 467.599L1846.32 410.71Z" fill="#FF0B53"/>
</g>
<defs>
<clipPath id="clip0_1_58">
<rect width="1920" height="1079" fill="white"/>
</clipPath>
</defs>
</svg>
