<svg width="34" height="34" viewBox="0 0 34 34" fill="none" xmlns="http://www.w3.org/2000/svg">
<path d="M21.675 7.8625C20.5983 7.86232 19.5645 8.28484 18.7962 9.03914C18.0279 9.79343 17.5864 10.8192 17.5667 11.8958L17.527 14.127C17.5247 14.2468 17.4971 14.3648 17.4459 14.4731C17.3948 14.5815 17.3214 14.6778 17.2304 14.7558C17.1395 14.8338 17.033 14.8917 16.9181 14.9257C16.8032 14.9596 16.6824 14.9689 16.5637 14.9529L14.3523 14.6526C11.4424 14.2559 8.65442 12.9157 5.97976 10.6873C5.13259 15.3765 6.78726 18.6249 10.7723 21.131L13.2473 22.6865C13.3648 22.7604 13.4625 22.862 13.5318 22.9824C13.601 23.1028 13.6397 23.2383 13.6445 23.3771C13.6492 23.5159 13.6199 23.6538 13.5591 23.7786C13.4982 23.9034 13.4077 24.0115 13.2954 24.0933L11.0401 25.7408C12.3817 25.8244 13.6553 25.7649 14.7121 25.5552C21.3959 24.2207 25.84 19.1916 25.84 10.8956C25.84 10.2184 24.4063 7.8625 21.675 7.8625V7.8625ZM14.7333 11.8433C14.7581 10.4777 15.1851 9.14978 15.961 8.02573C16.7368 6.90168 17.8271 6.03149 19.0951 5.5241C20.3632 5.01672 21.7528 4.8947 23.0899 5.17331C24.427 5.45192 25.6522 6.11879 26.6121 7.09042C27.6193 7.08333 28.4764 7.33833 30.3932 6.17667C29.9186 8.5 29.6848 9.50867 28.6733 10.8956C28.6733 21.7218 22.0193 26.9861 15.2674 28.3333C10.6378 29.257 3.90576 27.7398 1.97626 25.7253C2.95942 25.6488 6.95442 25.2195 9.26359 23.5294C7.31001 22.2417 -0.466076 17.6658 4.64384 5.3635C7.04226 8.16425 9.47467 10.0711 11.9397 11.0826C13.5802 11.7555 13.9825 11.7413 14.7348 11.8447L14.7333 11.8433Z" fill="#FF0B53"/>
</svg>
